<svg xmlns="http://www.w3.org/2000/svg" version="1.1" width="1024" height="1024"><rect id="backgroundrect" width="100%" height="100%" x="0" y="0" fill="none" stroke="none"/>
<title/>


<g class="currentLayer" style=""><title>Layer 1</title><g id="icomoon-ignore" class="selected" fill="#e84141" fill-opacity="1">
</g><path fill="#e84141" d="M1023.872 261.291c0-31.488-2.773-62.72-10.24-93.44-13.525-55.893-45.312-98.56-93.013-129.835-24.491-15.957-51.371-25.856-80.085-31.019-22.059-3.968-44.288-5.76-66.731-6.4-1.707-0.128-3.541-0.427-5.291-0.555h-513.024c-6.485 0.427-12.928 0.725-19.413 1.109-31.872 1.835-63.573 5.248-93.568 17.109-57.003 22.613-98.133 61.952-122.24 118.613-8.192 19.115-12.459 39.467-15.488 60.075-2.389 16.725-3.755 33.493-4.267 50.347 0 1.365-0.299 2.645-0.427 3.968v521.515c0.427 5.973 0.725 12.075 1.152 18.091 2.133 34.773 6.571 69.291 21.205 101.248 27.733 60.587 74.155 100.395 137.984 119.552 17.92 5.419 36.523 7.979 55.168 9.728 23.68 2.261 47.36 2.56 71.125 2.56h470.613c22.4 0 44.715-1.451 66.987-4.267 35.115-4.523 68.139-14.933 97.963-34.56 35.84-23.595 62.805-54.912 80.213-94.208 7.936-17.92 12.501-37.12 15.787-56.491 4.821-28.8 5.888-57.941 5.845-87.040-0.085-162.133 0-324.053-0.256-486.101zM749.824 431.531v243.712c0 17.792-2.475 35.285-10.411 51.456-12.373 25.173-32.427 41.045-59.221 48.64-14.933 4.267-30.123 6.699-45.653 7.381-40.533 1.92-75.648-25.6-82.901-65.536-6.059-32.981 9.685-69.291 44.288-86.272 13.781-6.827 28.587-10.667 43.435-13.824 16.128-3.499 32.341-6.528 48.384-10.24 11.691-2.688 19.499-9.813 21.76-22.016 0.597-2.688 0.853-5.547 0.853-8.235 0-77.44 0-154.88-0.085-232.235 0-2.645-0.427-5.333-1.109-7.893-1.707-6.4-6.4-10.368-12.971-9.984-6.827 0.427-13.568 1.493-20.267 2.816-32.427 6.4-64.853 12.928-97.28 19.456l-157.867 31.915c-0.683 0.128-1.365 0.427-2.048 0.555-11.819 3.285-16.085 8.661-16.64 20.907-0.085 1.792 0 3.669 0 5.547-0.085 111.019 0 222.037-0.128 333.013 0 17.92-2.005 35.669-9.173 52.352-11.861 27.307-32.853 44.373-61.184 52.608-14.933 4.267-30.293 6.827-45.867 7.339-40.96 1.536-74.88-25.6-81.92-65.877-5.973-34.645 9.813-71.893 49.237-88.533 15.232-6.4 31.147-9.899 47.275-13.227 12.245-2.56 24.533-4.949 36.693-7.552 16.341-3.541 24.875-13.781 25.6-30.464v-6.4c0-126.293 0-252.672 0.085-378.965 0-5.248 0.555-10.667 1.792-15.787 2.987-12.16 11.648-19.115 23.296-22.101 10.88-2.816 21.973-4.779 33.024-7.040 31.275-6.4 62.549-12.629 93.867-18.944l96.853-19.627c28.587-5.717 57.173-11.52 85.76-17.195 9.387-1.835 18.901-3.755 28.331-4.523 13.227-1.067 22.315 7.253 23.637 20.565 0.341 3.115 0.512 6.315 0.512 9.515 0.085 81.493 0.085 163.072 0.043 244.693z" id="svg_1" class="selected" fill-opacity="1"/></g></svg>