<svg xmlns="http://www.w3.org/2000/svg" xmlns:xlink="http://www.w3.org/1999/xlink" version="1.1" enable-background="new 0 0 1000 1000" xml:space="preserve" width="1000" height="1000"><rect id="backgroundrect" width="100%" height="100%" x="0" y="0" fill="none" stroke="none"/>
<metadata> Svg Vector Icons : http://www.onlinewebfonts.com/icon </metadata>

<g class="currentLayer" style=""><title>Layer 1</title><g id="svg_1" class="" stroke="#ffffff" stroke-opacity="1" fill="#ffffff" fill-opacity="1"><g transform="translate(0,511) scale(0.10000000149011612,-0.10000000149011612) " id="svg_2" stroke="#ffffff" stroke-opacity="1" fill="#ffffff" fill-opacity="1"><path d="M4659.6,4983.7c-462.8-72-902.3-297.5-1244.6-641.7c-396.7-400.6-598.9-875.1-624.2-1462.4l-11.7-278.1h-332.5c-297.5,0-346.2-5.8-460.9-46.7c-315-110.8-565.9-381.2-649.5-702c-42.8-167.2-44.7-5717.2,0-5880.6c95.3-359.8,410.3-665,764.2-738.9c145.8-31.1,5657-31.1,5802.8,0c363.7,75.8,696.2,408.4,772,772c15.5,71.9,21.4,937.3,21.4,2917c0,3035.6,3.9,2915-99.2,3121.1c-116.7,231.4-336.4,425.9-577.6,511.5c-116.7,40.8-163.4,46.7-462.8,46.7h-332.5l-11.7,278.1c-13.6,303.4-54.4,509.5-151.7,748.7c-282,705.9-962.6,1240.7-1728.8,1355.4C5112.7,5018.8,4875.4,5018.8,4659.6,4983.7z M5478.3,4645.4c684.5-169.2,1195.9-663.1,1363.2-1320.4c38.9-149.7,50.6-243.1,52.5-451.2l3.9-262.5h-1896h-1896l1.9,243.1c1.9,274.2,36.9,476.4,122.5,686.5c252.8,630.1,799.2,1040.4,1528.5,1149.3C4892.9,4709.6,5326.6,4682.3,5478.3,4645.4z M8023.8,2234c128.3-64.2,237.2-177,301.4-311.1l50.6-108.9l5.8-2858.6c3.9-2800.3,3.9-2860.6-33.1-2985c-64.2-208.1-212-352-429.8-416.2c-93.3-27.2-406.4-31.1-2918.9-31.1c-2763.3,0-2815.8,0-2940.3,38.9c-161.4,50.6-301.4,171.1-377.3,326.7l-54.4,110.8l-5.8,2866.4c-5.8,3154.2-11.7,2967.5,114.7,3158.1c68.1,105,180.8,188.6,309.2,233.4c77.8,29.2,387,31.1,2985,27.2l2897.5-3.9L8023.8,2234z" id="svg_3" stroke="#ffffff" stroke-opacity="1" fill="#ffffff" fill-opacity="1"/></g></g></g></svg>