<!-- Generated by IcoMoon.io -->
<svg version="1.1" xmlns="http://www.w3.org/2000/svg" width="768" height="768" viewBox="0 0 768 768">
<title></title>
<g id="icomoon-ignore">
</g>
<path fill="#ffff" d="M608 160h-448l48-64h352zM697.408 172.544l-95.808-127.744c-6.272-8.352-15.808-12.768-25.6-12.8h-384c-10.432 0-19.712 4.992-25.6 12.8l-95.808 127.744c-1.376 1.792-2.592 3.744-3.552 5.824-2.080 4.384-3.072 9.056-3.040 13.632v448c0 26.496 10.784 50.56 28.128 67.872s41.376 28.128 67.872 28.128h448c26.496 0 50.56-10.784 67.872-28.128s28.128-41.376 28.128-67.872v-448c0-7.008-2.272-13.504-6.048-18.72-0.128-0.16-0.224-0.32-0.352-0.48zM128 224h512v416c0 8.832-3.552 16.8-9.376 22.624s-13.792 9.376-22.624 9.376h-448c-8.832 0-16.8-3.552-22.624-9.376s-9.376-13.792-9.376-22.624zM480 320c0 26.528-10.72 50.464-28.128 67.872s-41.344 28.128-67.872 28.128-50.464-10.72-67.872-28.128-28.128-41.344-28.128-67.872c0-17.664-14.336-32-32-32s-32 14.336-32 32c0 44.16 17.952 84.224 46.848 113.152s68.992 46.848 113.152 46.848 84.224-17.952 113.152-46.848 46.848-68.992 46.848-113.152c0-17.664-14.336-32-32-32s-32 14.336-32 32z"></path>
</svg>
